<svg xmlns="http://www.w3.org/2000/svg" width="390" height="269" viewBox="0 0 390 269">
<g>
<path d="M 0.00 0.00 L 390.00 0.00 L 390.00 269.00 L 0.00 269.00 ZM 156.00 180.10 L 156.00 201.00 L 167.00 201.00 L 167.00 191.00 L 177.00 191.00 L 177.00 201.00 L 188.00 201.00 L 188.00 191.09 L 202.50 190.50 L 203.10 180.00 L 223.90 180.00 L 224.50 190.50 L 234.50 190.50 L 234.78 179.78 L 235.07 169.07 L 245.28 168.78 L 255.50 168.50 L 256.11 159.00 L 266.00 159.00 L 266.00 74.00 L 256.00 74.00 L 256.00 63.10 L 250.75 62.80 L 245.50 62.50 L 244.90 52.00 L 235.00 52.00 L 235.00 42.00 L 156.00 42.00 L 156.00 52.00 L 145.00 52.00 L 145.00 63.00 L 135.10 63.00 L 134.50 73.50 L 129.24 73.80 L 123.98 74.11 L 124.50 158.50 L 135.00 159.10 L 135.00 169.00 L 145.50 169.00 L 145.50 179.50 ZM 167.10 148.00 L 166.50 158.50 L 156.25 158.78 C150.61,158.94 145.96,158.72 145.91,158.28 C145.86,157.85 145.90,155.36 145.99,152.75 L 146.15 148.00 L 135.00 148.00 L 135.00 116.00 L 177.00 116.00 L 177.00 148.00 ZM 224.00 116.00 L 256.05 116.00 L 255.50 147.50 L 234.94 147.77 C223.63,147.92 214.06,147.73 213.69,147.35 C213.31,146.98 213.00,142.24 213.00,136.83 L 213.00 127.00 L 224.00 127.00 L 224.00 116.00 ZM 166.53 232.05 C166.88,232.62 180.61,233.00 201.06,233.00 L 235.00 233.00 L 235.00 212.00 L 224.10 212.00 L 223.50 222.50 L 213.50 222.50 L 212.90 212.00 L 188.10 212.00 L 187.50 222.50 L 177.50 222.50 L 176.90 212.00 L 166.22 212.00 L 166.08 221.55 C166.00,226.80 166.20,231.52 166.53,232.05 ZM 145.70 137.37 C146.08,137.75 150.92,137.94 156.45,137.78 L 166.50 137.50 L 167.10 127.00 L 145.00 127.00 L 145.00 131.83 C145.00,134.49 145.31,136.98 145.70,137.37 ZM 224.67 137.33 C225.03,137.70 229.76,138.00 235.17,138.00 L 245.00 138.00 L 245.00 127.00 L 224.00 127.00 L 224.00 131.83 C224.00,134.49 224.30,136.97 224.67,137.33 ZM 145.00 84.00 L 145.00 106.00 L 140.67 106.00 C138.28,106.00 136.03,105.70 135.67,105.33 C135.30,104.97 135.00,100.02 135.00,94.33 L 135.00 84.00 ZM 188.11 159.00 L 187.50 168.50 L 177.00 169.10 L 177.00 159.00 ZM 214.11 159.00 L 213.50 168.50 L 203.00 169.10 L 203.00 159.00 Z" fill="rgb(6,9,24)"/>
<path d="M 166.53 232.05 C166.20,231.52 166.00,226.80 166.08,221.55 L 166.22 212.00 L 171.56 212.00 L 176.90 212.00 L 177.20 217.25 L 177.50 222.50 L 182.50 222.50 L 187.50 222.50 L 187.80 217.25 L 188.10 212.00 L 200.50 212.00 L 212.90 212.00 L 213.20 217.25 L 213.50 222.50 L 218.50 222.50 L 223.50 222.50 L 223.80 217.25 L 224.10 212.00 L 229.55 212.00 L 235.00 212.00 L 235.00 222.50 L 235.00 233.00 L 201.06 233.00 C180.61,233.00 166.88,232.62 166.53,232.05 ZM 156.00 190.55 L 156.00 180.10 L 150.75 179.80 L 145.50 179.50 L 145.50 174.25 L 145.50 169.00 L 140.25 169.00 L 135.00 169.00 L 135.00 164.05 L 135.00 159.10 L 129.75 158.80 L 124.50 158.50 L 124.24 116.30 L 123.98 74.11 L 129.24 73.80 L 134.50 73.50 L 134.80 68.25 L 135.10 63.00 L 140.05 63.00 L 145.00 63.00 L 145.00 57.50 L 145.00 52.00 L 150.50 52.00 L 156.00 52.00 L 156.00 47.00 L 156.00 42.00 L 195.50 42.00 L 235.00 42.00 L 235.00 47.00 L 235.00 52.00 L 239.95 52.00 L 244.90 52.00 L 245.20 57.25 L 245.50 62.50 L 250.75 62.80 L 256.00 63.10 L 256.00 68.55 L 256.00 74.00 L 261.00 74.00 L 266.00 74.00 L 266.00 116.50 L 266.00 159.00 L 261.05 159.00 L 256.11 159.00 L 255.80 163.75 L 255.50 168.50 L 245.28 168.78 L 235.07 169.07 L 234.78 179.78 L 234.50 190.50 L 229.50 190.50 L 224.50 190.50 L 224.20 185.25 L 223.90 180.00 L 213.50 180.00 L 203.10 180.00 L 202.80 185.25 L 202.50 190.50 L 195.25 190.79 L 188.00 191.09 L 188.00 196.04 L 188.00 201.00 L 182.50 201.00 L 177.00 201.00 L 177.00 196.00 L 177.00 191.00 L 172.00 191.00 L 167.00 191.00 L 167.00 196.00 L 167.00 201.00 L 161.50 201.00 L 156.00 201.00 L 156.00 190.55 ZM 187.80 163.75 L 188.11 159.00 L 182.55 159.00 L 177.00 159.00 L 177.00 164.05 L 177.00 169.10 L 182.25 168.80 L 187.50 168.50 L 187.80 163.75 ZM 213.80 163.75 L 214.11 159.00 L 208.55 159.00 L 203.00 159.00 L 203.00 164.05 L 203.00 169.10 L 208.25 168.80 L 213.50 168.50 L 213.80 163.75 ZM 166.80 153.25 L 167.10 148.00 L 172.05 148.00 L 177.00 148.00 L 177.00 132.00 L 177.00 116.00 L 156.00 116.00 L 135.00 116.00 L 135.00 132.00 L 135.00 148.00 L 140.57 148.00 L 146.15 148.00 L 145.99 152.75 C145.90,155.36 145.86,157.85 145.91,158.28 C145.96,158.72 150.61,158.94 156.25,158.78 L 166.50 158.50 L 166.80 153.25 ZM 255.78 131.75 L 256.05 116.00 L 240.03 116.00 L 224.00 116.00 L 224.00 121.50 L 224.00 127.00 L 218.50 127.00 L 213.00 127.00 L 213.00 136.83 C213.00,142.24 213.31,146.98 213.69,147.35 C214.06,147.73 223.63,147.92 234.94,147.77 L 255.50 147.50 L 255.78 131.75 ZM 145.00 95.00 L 145.00 84.00 L 140.00 84.00 L 135.00 84.00 L 135.00 94.33 C135.00,100.02 135.30,104.97 135.67,105.33 C136.03,105.70 138.28,106.00 140.67,106.00 L 145.00 106.00 L 145.00 95.00 ZM 145.70 137.37 C145.31,136.98 145.00,134.49 145.00,131.83 L 145.00 127.00 L 156.05 127.00 L 167.10 127.00 L 166.80 132.25 L 166.50 137.50 L 156.45 137.78 C150.92,137.94 146.08,137.75 145.70,137.37 ZM 224.67 137.33 C224.30,136.97 224.00,134.49 224.00,131.83 L 224.00 127.00 L 234.50 127.00 L 245.00 127.00 L 245.00 132.50 L 245.00 138.00 L 235.17 138.00 C229.76,138.00 225.03,137.70 224.67,137.33 Z" fill="rgb(247,246,241)"/>
</g>
</svg>